<?xml version="1.0" encoding="UTF-8"?>
<svg version="1.1" id="icon-close" xmlns="http://www.w3.org/2000/svg" width="32" height="32" viewBox="0 0 32 32">
  <path d="M3.669 3.669c0.625-0.625 1.638-0.625 2.263 0v0l10.069 10.067 10.069-10.067c0.577-0.577 1.484-0.621 2.112-0.133l0.151 0.133c0.625 0.625 0.625 1.638 0 2.263v0l-10.067 10.069 10.067 10.069c0.577 0.577 0.621 1.484 0.133 2.112l-0.133 0.151c-0.625 0.625-1.638 0.625-2.263 0v0l-10.069-10.067-10.069 10.067c-0.577 0.577-1.484 0.621-2.112 0.133l-0.151-0.133c-0.625-0.625-0.625-1.638 0-2.263v0l10.067-10.069-10.067-10.069c-0.577-0.577-0.621-1.484-0.133-2.112z"></path>
</svg>